<?xml version="1.0" standalone="no"?>
<!DOCTYPE svg PUBLIC "-//W3C//DTD SVG 20010904//EN"
 "http://www.w3.org/TR/2001/REC-SVG-20010904/DTD/svg10.dtd">
<svg version="1.0" xmlns="http://www.w3.org/2000/svg"
 width="512.000000pt" height="512.000000pt" viewBox="0 0 512.000000 512.000000"
 preserveAspectRatio="xMidYMid meet">

<g transform="translate(0.000000,512.000000) scale(0.100000,-0.100000)"
fill="#000000" stroke="none">
<path d="M1280 3520 l0 -160 -520 0 -520 0 0 -80 0 -80 520 0 520 0 0 -280 0
-280 -520 0 -520 0 0 -80 0 -80 520 0 520 0 0 -520 0 -520 80 0 80 0 0 520 0
520 320 0 320 0 0 -520 0 -520 80 0 80 0 0 160 0 160 320 0 320 0 0 -160 0
-160 80 0 80 0 0 160 0 160 320 0 320 0 0 -160 0 -160 80 0 80 0 0 160 0 160
520 0 520 0 0 80 0 80 -520 0 -520 0 0 280 0 280 520 0 520 0 0 80 0 80 -520
0 -520 0 0 280 0 280 400 0 400 0 0 80 0 80 -400 0 -400 0 0 160 0 160 -80 0
-80 0 0 -520 0 -520 -320 0 -320 0 0 520 0 520 -80 0 -80 0 0 -160 0 -160
-320 0 -320 0 0 160 0 160 -80 0 -80 0 0 -160 0 -160 -320 0 -320 0 0 160 0
160 -80 0 -80 0 0 -160z m800 -600 l0 -280 -320 0 -320 0 0 280 0 280 320 0
320 0 0 -280z m800 0 l0 -280 -320 0 -320 0 0 280 0 280 320 0 320 0 0 -280z
m0 -720 l0 -280 -320 0 -320 0 0 280 0 280 320 0 320 0 0 -280z m800 0 l0
-280 -320 0 -320 0 0 280 0 280 320 0 320 0 0 -280z"/>
<path d="M240 1840 l0 -80 280 0 280 0 0 80 0 80 -280 0 -280 0 0 -80z"/>
<path d="M960 1840 l0 -80 80 0 80 0 0 80 0 80 -80 0 -80 0 0 -80z"/>
<path d="M1600 1840 l0 -80 80 0 80 0 0 80 0 80 -80 0 -80 0 0 -80z"/>
</g>
</svg>
